<?xml version="1.0" standalone="no"?>
<!DOCTYPE svg PUBLIC "-//W3C//DTD SVG 20010904//EN"
 "http://www.w3.org/TR/2001/REC-SVG-20010904/DTD/svg10.dtd">
<svg version="1.0" xmlns="http://www.w3.org/2000/svg"
 width="225.000000pt" height="225.000000pt" viewBox="0 0 225.000000 225.000000"
 preserveAspectRatio="xMidYMid meet">

<g transform="translate(0.000000,225.000000) scale(0.100000,-0.100000)"
fill="#000000" stroke="none">
<path d="M955 2235 c-740 -116 -1163 -904 -849 -1583 195 -423 661 -690 1122
-643 704 73 1167 752 972 1427 -156 541 -694 886 -1245 799z m375 -41 c210
-40 388 -133 548 -288 234 -227 343 -501 329 -830 -8 -204 -60 -370 -168 -536
-153 -236 -397 -409 -669 -475 -91 -22 -308 -30 -411 -16 -340 49 -650 275
-809 591 -80 159 -113 304 -112 496 1 252 80 474 240 676 153 192 397 339 637
383 100 19 315 18 415 -1z"/>
<path d="M1010 2155 c0 -8 -7 -15 -15 -15 -11 0 -10 -9 8 -45 23 -46 47 -59
47 -25 0 12 7 34 15 50 14 28 14 30 -3 30 -10 0 -23 -5 -30 -12 -9 -9 -12 -8
-12 4 0 9 6 19 13 21 7 3 5 6 -5 6 -10 1 -18 -6 -18 -14z"/>
<path d="M1180 2135 c0 -8 5 -15 10 -15 6 0 10 -16 10 -35 0 -24 5 -35 15 -35
8 0 15 9 15 19 0 11 7 26 15 35 21 21 19 33 -7 40 -38 10 -58 7 -58 -9z"/>
<path d="M910 2120 c-11 -11 -20 -15 -20 -10 0 6 -9 10 -20 10 -23 0 -24 -10
-9 -63 7 -28 15 -37 26 -33 8 3 16 6 19 6 2 0 1 8 -3 18 -6 16 -5 16 13 1 19
-16 54 -15 54 1 0 5 -9 14 -21 20 -12 7 -18 17 -15 26 3 8 9 21 12 29 9 21
-12 19 -36 -5z"/>
<path d="M1295 2103 c-3 -19 -8 -40 -11 -47 -3 -8 4 -16 15 -19 14 -3 22 1 26
14 4 11 11 17 16 13 6 -3 8 -12 5 -20 -6 -17 21 -31 34 -18 4 5 11 28 15 52 6
38 5 42 -14 42 -12 0 -21 -6 -21 -15 0 -8 -4 -15 -10 -15 -5 0 -10 8 -10 19 0
10 -9 21 -19 24 -15 4 -20 -2 -26 -30z"/>
<path d="M1439 2072 c-5 -15 -12 -32 -14 -39 -7 -20 24 -43 55 -43 22 0 33 7
45 30 20 39 19 50 -5 50 -13 0 -22 -9 -26 -25 -3 -14 -12 -25 -20 -25 -10 0
-11 6 -4 26 13 34 13 41 -5 48 -11 4 -19 -3 -26 -22z"/>
<path d="M686 2048 c-20 -28 -20 -43 0 -62 29 -29 93 -14 80 19 -5 14 -9 15
-22 5 -10 -9 -18 -10 -26 -2 -12 12 -2 32 17 32 9 0 12 6 9 15 -9 22 -41 18
-58 -7z"/>
<path d="M1576 2003 c-43 -33 -46 -38 -30 -50 9 -7 21 -10 27 -6 5 3 18 -5 28
-18 12 -16 21 -21 28 -14 14 14 18 117 5 122 -5 2 -32 -13 -58 -34z"/>
<path d="M950 1995 c-326 -67 -568 -287 -676 -615 -25 -78 -28 -98 -28 -245
-1 -177 9 -229 67 -365 116 -268 366 -464 656 -515 597 -106 1123 409 1030
1008 -56 362 -347 664 -706 733 -91 17 -256 17 -343 -1z m380 -41 c96 -23 255
-104 332 -168 269 -223 377 -582 276 -913 l-10 -33 -358 0 -359 0 -35 -35
c-21 -20 -38 -49 -42 -70 -6 -35 -24 -49 -24 -19 0 9 -15 31 -34 50 l-34 34
-356 0 -355 0 -20 68 c-43 144 -51 264 -26 408 32 179 117 336 252 465 125
119 266 193 429 224 96 18 269 13 364 -11z m585 -1144 c-4 -6 -133 -10 -354
-10 -337 0 -349 -1 -375 -21 -32 -25 -34 -14 -4 18 l21 23 359 0 c237 0 357
-3 353 -10z m-857 -46 c12 -8 22 -20 22 -25 0 -6 -10 -3 -22 5 -19 14 -71 16
-365 16 -222 0 -343 4 -343 10 0 6 121 10 343 10 294 0 346 -2 365 -16z m842
6 c0 -6 -118 -10 -335 -10 -275 0 -342 -3 -373 -15 l-37 -15 28 25 28 25 345
0 c223 0 344 -4 344 -10z m-834 -61 c19 -22 19 -22 -3 -10 -15 7 -123 11 -352
11 -209 0 -332 4 -336 10 -4 7 109 10 333 10 334 0 339 0 358 -21z m809 11
c-4 -6 -127 -10 -336 -10 -209 0 -337 -4 -350 -10 -24 -13 -25 -2 -1 16 21 17
697 21 687 4z m-816 -55 c7 -7 -99 -9 -317 -7 -194 2 -331 7 -337 13 -6 6 105
9 317 7 201 -2 331 -7 337 -13z m779 3 c-4 -10 -81 -14 -334 -15 -292 -2 -327
-1 -310 12 27 20 650 23 644 3z m-765 -80 c34 -23 75 -23 100 0 17 15 50 17
318 20 164 2 299 -1 299 -5 0 -30 -28 -33 -302 -33 -238 0 -279 -2 -284 -15
-5 -11 -23 -15 -79 -15 -56 0 -74 4 -79 15 -5 13 -46 15 -290 15 -278 0 -286
1 -296 21 l-11 20 298 -3 c265 -3 302 -5 326 -20z m-102 -75 c16 -43 69 -92
110 -103 77 -21 163 22 194 98 13 29 18 32 54 32 34 0 41 -3 41 -19 0 -23 -25
-51 -45 -51 -17 0 -28 -33 -21 -58 4 -12 -3 -27 -19 -42 -20 -19 -29 -21 -47
-14 -32 14 -53 7 -66 -21 -9 -20 -19 -25 -47 -25 -28 0 -38 5 -47 26 -11 24
-16 26 -54 20 -35 -4 -45 -2 -64 19 -12 13 -19 29 -15 35 10 17 -3 60 -19 60
-21 0 -46 28 -46 51 0 16 7 19 40 19 35 0 42 -4 51 -27z m74 -61 c15 -12 39
-23 54 -23 20 -1 22 -2 6 -6 -10 -3 -33 2 -50 11 -29 16 -75 72 -75 92 0 5 9
-5 19 -22 10 -17 31 -40 46 -52z m218 58 c-9 -33 -80 -90 -111 -89 -26 1 -25
1 6 9 38 9 68 34 88 72 17 33 24 36 17 8z"/>
<path d="M1070 1868 c-11 -18 -20 -36 -20 -40 0 -5 -19 -8 -43 -8 -50 0 -87
-22 -87 -52 0 -11 9 -35 20 -54 l21 -33 -21 -38 c-11 -21 -20 -45 -20 -54 0
-28 34 -49 81 -49 42 0 47 -3 62 -35 31 -64 84 -66 120 -4 20 36 26 39 65 39
78 0 98 45 51 113 -20 27 -20 27 2 56 26 36 28 80 3 98 -10 7 -37 13 -61 13
-36 0 -45 4 -52 23 -14 37 -40 57 -72 57 -22 0 -34 -8 -49 -32z m65 16 c13 -5
45 -53 45 -67 0 -15 -59 -27 -83 -18 -32 13 -34 29 -6 65 23 29 21 28 44 20z
m-99 -106 c-3 -13 -6 -28 -6 -34 0 -7 -12 -20 -27 -29 -26 -17 -27 -17 -45 5
-36 45 -17 80 45 80 36 0 39 -2 33 -22z m264 8 c9 -12 8 -22 -5 -50 -10 -20
-23 -36 -30 -36 -20 0 -55 49 -55 76 0 21 5 24 39 24 21 0 44 -6 51 -14z
m-215 -5 c3 -6 -4 -15 -15 -21 -16 -8 -20 -8 -20 3 0 25 23 36 35 18z m109 -7
c9 -24 8 -24 -19 -12 -19 8 -22 14 -13 20 19 11 25 10 32 -8z m6 -96 c0 -46
-2 -48 -41 -68 l-41 -21 -40 26 c-36 24 -39 29 -36 68 3 37 8 44 43 64 l39 22
38 -21 c36 -20 38 -25 38 -70z m37 -15 c-16 -16 -17 -15 -17 17 0 32 1 33 17
17 16 -16 16 -18 0 -34z m-207 17 c0 -21 -15 -27 -25 -10 -7 12 2 30 16 30 5
0 9 -9 9 -20z m-24 -38 c12 -10 25 -33 29 -50 6 -31 6 -32 -28 -32 -69 0 -80
16 -52 70 18 35 22 36 51 12z m289 -18 c21 -45 8 -64 -47 -64 -40 0 -40 0 -34
33 6 29 37 67 56 67 4 0 15 -16 25 -36z m-205 -46 c0 -5 -9 -8 -20 -8 -13 0
-20 7 -20 20 0 18 2 19 20 8 11 -7 20 -16 20 -20z m104 7 c-7 -17 -30 -20 -38
-6 -4 5 0 12 6 14 25 10 37 7 32 -8z m-39 -27 c30 -14 30 -14 5 -55 -24 -40
-42 -41 -69 -7 -27 34 -26 48 2 62 29 14 32 14 62 0z"/>
<path d="M1090 1700 c-16 -31 4 -62 38 -58 21 2 28 9 30 32 5 45 -47 65 -68
26z"/>
<path d="M451 1334 c-19 -25 -21 -40 -21 -201 0 -169 6 -206 34 -225 6 -4 71
-8 144 -8 l132 0 0 65 0 65 -89 0 c-72 0 -90 3 -95 16 -11 29 -6 160 6 172 7
7 44 12 95 12 l83 0 0 65 0 65 -134 0 c-133 0 -135 0 -155 -26z"/>
<path d="M790 1295 l0 -65 45 0 45 0 0 -165 0 -165 65 0 65 0 0 165 0 165 45
0 45 0 0 65 0 65 -155 0 -155 0 0 -65z"/>
<path d="M1150 1147 c0 -264 -11 -247 153 -247 166 0 157 -15 157 250 l0 210
-60 0 -60 0 0 -152 c0 -84 -4 -159 -9 -166 -4 -8 -19 -12 -32 -10 l-24 3 -3
163 -2 162 -60 0 -60 0 0 -213z"/>
<path d="M1510 1295 l0 -65 45 0 45 0 0 -165 0 -165 60 0 60 0 0 165 0 165 50
0 50 0 0 65 0 65 -155 0 -155 0 0 -65z"/>
<path d="M557 1982 c-34 -37 -15 -82 34 -82 15 0 31 -5 34 -10 4 -6 11 -7 17
-4 7 4 6 9 -2 14 -9 6 -9 12 1 27 7 12 9 31 5 46 -5 23 -12 27 -40 27 -19 0
-40 -8 -49 -18z m53 -32 c0 -11 -4 -20 -9 -20 -14 0 -23 18 -16 30 10 17 25
11 25 -10z"/>
<path d="M1692 1952 c1 -10 -5 -30 -15 -45 -16 -24 -16 -27 0 -35 13 -8 21 -4
36 14 10 13 22 22 27 19 4 -3 13 1 19 8 8 10 4 19 -19 35 -36 27 -52 28 -48 4z"/>
<path d="M465 1920 c-3 -6 -3 -19 0 -30 7 -22 -4 -27 -21 -10 -8 8 -15 6 -23
-4 -10 -11 -6 -21 20 -51 29 -32 34 -35 47 -21 12 12 13 18 4 29 -15 17 -3 31
14 16 8 -6 19 -7 28 -2 13 7 11 14 -15 46 -32 38 -43 44 -54 27z"/>
<path d="M1560 1920 c0 -5 5 -10 10 -10 6 0 10 5 10 10 0 6 -4 10 -10 10 -5 0
-10 -4 -10 -10z"/>
<path d="M1806 1801 c-3 -4 1 -17 9 -27 11 -15 16 -16 26 -7 10 10 9 15 -1 28
-14 17 -26 19 -34 6z"/>
<path d="M311 1756 c-9 -11 -4 -20 28 -45 34 -27 40 -29 51 -15 11 12 8 19
-21 44 -39 34 -43 35 -58 16z"/>
<path d="M1918 1689 c-22 -12 -24 -62 -4 -79 11 -8 20 -9 33 -1 10 6 12 11 6
11 -18 0 -16 40 2 40 8 0 15 -7 15 -16 0 -20 24 -13 28 8 4 20 -24 48 -46 48
-9 0 -25 -5 -34 -11z"/>
<path d="M245 1661 c-4 -14 2 -31 21 -56 32 -42 41 -44 50 -8 4 15 17 35 28
44 27 22 22 26 -41 34 -46 7 -52 5 -58 -14z"/>
<path d="M340 1606 c0 -9 5 -16 10 -16 6 0 10 4 10 9 0 6 -4 13 -10 16 -5 3
-10 -1 -10 -9z"/>
<path d="M1972 1578 c-19 -19 -14 -63 8 -83 31 -28 68 -11 85 38 13 37 12 39
-12 48 -33 12 -67 11 -81 -3z m54 -29 c10 -17 -13 -36 -27 -22 -12 12 -4 33
11 33 5 0 12 -5 16 -11z"/>
<path d="M193 1558 c-6 -7 -16 -24 -23 -36 -10 -21 -9 -27 10 -44 12 -11 24
-17 27 -14 3 3 13 1 23 -4 13 -7 20 -4 29 16 14 32 14 67 -1 82 -16 16 -53 15
-65 0z m47 -45 c0 -14 -2 -15 -9 -4 -5 7 -14 10 -20 7 -6 -4 -11 -2 -11 3 0 6
9 11 20 11 12 0 20 -7 20 -17z"/>
<path d="M2040 1447 c-44 -13 -42 -11 -34 -31 4 -11 14 -16 26 -13 18 5 18 4
4 -18 -19 -29 -11 -59 13 -50 9 4 28 9 44 12 34 7 39 43 5 43 -20 0 -20 1 -4
19 17 19 12 52 -8 50 -6 -1 -27 -6 -46 -12z"/>
<path d="M160 1356 c0 -9 -4 -16 -10 -16 -5 0 -10 5 -10 11 0 8 -5 7 -16 -1
-10 -9 -14 -26 -12 -49 2 -28 8 -38 30 -45 59 -21 94 67 41 102 -21 13 -23 13
-23 -2z m13 -46 c3 6 4 5 3 -2 -4 -18 -28 -16 -34 2 -4 13 -3 13 10 2 11 -9
18 -9 21 -2z"/>
<path d="M2068 1299 c-21 -12 -25 -78 -6 -97 20 -20 48 -14 49 11 0 20 1 20 8
3 10 -27 24 -4 23 38 -1 45 -37 67 -74 45z m49 -45 c2 -5 -8 -9 -22 -9 -27 0
-33 10 -12 18 16 7 30 3 34 -9z"/>
<path d="M90 1196 c0 -7 10 -17 23 -20 l22 -7 -22 -11 c-14 -7 -23 -20 -23
-35 0 -21 4 -23 50 -23 43 0 50 3 50 20 0 14 -7 20 -22 21 l-23 0 23 16 c12 8
22 24 22 34 0 16 -8 19 -50 19 -36 0 -50 -4 -50 -14z"/>
<path d="M2054 1081 c-10 -10 -3 -31 11 -31 8 0 15 -4 15 -10 0 -5 -5 -10 -10
-10 -6 0 -14 -10 -19 -22 -10 -27 5 -36 57 -37 26 -1 32 3 32 19 0 12 -7 20
-17 21 -15 0 -14 3 5 16 12 8 22 23 22 33 0 14 -10 19 -46 22 -25 2 -47 1 -50
-1z"/>
<path d="M98 1058 c13 -13 4 -45 -14 -52 -8 -3 -14 -11 -14 -18 0 -9 3 -9 12
0 9 9 14 6 22 -11 23 -46 96 -25 96 27 0 37 -22 56 -69 60 -29 3 -40 1 -33 -6z
m65 -53 c1 -5 -6 -11 -15 -13 -11 -2 -18 3 -18 13 0 17 30 18 33 0z"/>
<path d="M2029 906 c-14 -30 -5 -72 17 -80 20 -8 19 -8 28 27 5 21 3 27 -11
27 -12 0 -14 3 -6 11 20 20 34 0 27 -37 -7 -38 -3 -41 20 -18 21 21 21 80 0
88 -34 13 -64 6 -75 -18z"/>
<path d="M113 906 c4 -10 7 -24 7 -32 0 -11 9 -13 42 -8 48 8 47 -10 -2 -21
-31 -7 -35 -12 -22 -32 13 -21 81 3 88 32 9 38 -12 65 -51 65 -18 0 -41 3 -51
7 -14 5 -16 3 -11 -11z"/>
<path d="M234 786 c-4 -11 -14 -16 -25 -13 -31 8 -44 -18 -30 -63 l11 -39 43
19 c23 11 42 24 41 30 -3 27 -5 31 -15 24 -7 -4 -9 0 -5 12 3 11 1 26 -4 34
-8 12 -10 12 -16 -4z"/>
<path d="M1993 783 c-4 -9 -1 -19 5 -21 19 -6 14 -22 -7 -22 -39 0 -32 -29 12
-48 47 -22 69 -14 49 18 -16 27 -15 33 5 26 15 -6 32 8 33 25 0 6 -73 39 -86
39 -2 0 -8 -8 -11 -17z"/>
<path d="M1925 650 c-19 -37 -9 -63 13 -34 12 16 14 16 9 2 -8 -22 12 -35 25
-17 7 11 8 9 6 -6 -2 -11 2 -20 10 -19 41 3 43 5 39 30 -2 19 -16 34 -45 51
l-41 24 -16 -31z"/>
<path d="M285 656 c-11 -8 -30 -12 -41 -10 -31 8 -36 -8 -14 -42 21 -31 47
-39 42 -13 -1 9 11 21 28 30 27 12 29 16 18 32 -12 16 -15 16 -33 3z"/>
<path d="M1900 660 c0 -5 5 -10 10 -10 6 0 10 5 10 10 0 6 -4 10 -10 10 -5 0
-10 -4 -10 -10z"/>
<path d="M452 387 l-22 -24 20 -18 c20 -18 21 -18 40 1 18 18 18 20 2 42 l-18
23 -22 -24z"/>
<path d="M1745 390 c-18 -20 -18 -21 3 -43 l22 -21 20 20 20 20 -23 22 -24 22
-18 -20z"/>
<path d="M762 223 c-22 -9 -34 -41 -22 -64 14 -25 52 -41 62 -25 12 18 9 23
-13 29 -13 3 -18 10 -14 17 4 7 15 10 25 7 26 -7 34 20 10 33 -20 11 -28 11
-48 3z"/>
<path d="M860 179 c-46 -59 -50 -73 -15 -67 14 3 33 -1 42 -8 30 -23 34 -16
31 56 -2 38 -6 70 -10 70 -4 0 -26 -23 -48 -51z"/>
<path d="M1461 222 c-1 -9 -8 -11 -21 -7 -38 12 -87 -35 -74 -70 9 -23 51 -37
74 -25 28 15 37 40 29 80 -3 19 -7 29 -8 22z m-26 -53 c10 -15 -1 -23 -20 -15
-9 3 -13 10 -10 16 8 13 22 13 30 -1z"/>
<path d="M1303 170 c-7 -25 -12 -25 -29 -2 -21 28 -37 2 -29 -47 5 -31 11 -41
26 -41 12 0 19 7 19 20 0 11 5 20 10 20 6 0 10 -7 10 -15 0 -8 9 -15 20 -15
19 0 20 4 15 38 -4 20 -8 43 -10 50 -7 19 -26 14 -32 -8z"/>
<path d="M960 168 c0 -7 -3 -30 -6 -50 -5 -31 -4 -38 9 -38 9 0 20 7 25 17 9
14 11 14 21 -5 24 -44 51 -12 51 59 0 24 -26 25 -34 2 -6 -14 -8 -14 -22 5
-16 24 -44 30 -44 10z"/>
<path d="M1140 150 c0 -11 4 -20 9 -20 5 0 11 -13 15 -30 8 -44 36 -40 36 5 0
19 5 35 10 35 6 0 10 7 10 15 0 11 -11 15 -40 15 -33 0 -40 -3 -40 -20z"/>
</g>
</svg>
